<svg width="24" height="24" viewBox="0 0 24 24" fill="none" xmlns="http://www.w3.org/2000/svg">
<path d="M20.0946 18.3046L20.0947 18.3042C20.1871 17.9862 20.1936 17.6026 20.1936 16.8305V14.4957L19.2338 13.7651C19.0516 13.6264 18.851 13.5155 18.6295 13.4321L20.0946 18.3046ZM20.0946 18.3046C20.0002 18.6301 19.8385 18.932 19.6199 19.191C19.4016 19.4496 19.1313 19.6596 18.8268 19.8072C18.535 19.9471 18.1676 20.0125 17.4156 20.1323M20.0946 18.3046L17.4156 20.1323M17.4156 20.1323C17.415 20.1325 17.4143 20.1326 17.4136 20.1327L17.3006 20.15L17.2935 20.1511L17.2865 20.1523C17.0858 20.1872 16.8841 20.2164 16.6818 20.2399C16.5262 20.2545 16.4207 20.2534 16.331 20.2359C16.1393 20.1969 15.9609 20.1091 15.8129 19.9811L15.3223 20.5484L15.8129 19.9811C15.666 19.8541 15.554 19.6916 15.4875 19.5091C15.4496 19.3957 15.4284 19.2773 15.4246 19.1577L15.4243 19.1475L15.4237 19.1373C15.4145 18.9805 15.4142 18.7821 15.4142 18.5135V14.7577C15.4142 14.3419 15.421 14.137 15.4681 13.9846L15.4687 13.9827C15.527 13.792 15.6343 13.62 15.7799 13.4838C15.925 13.3479 16.1033 13.2524 16.2968 13.2067C16.4446 13.1728 16.6427 13.1815 17.0525 13.2148L17.0568 13.2151L17.1347 13.221L17.2279 13.2294L17.2279 13.2295L17.2366 13.2302C17.9791 13.289 18.3408 13.3236 18.6292 13.432L17.4156 20.1323ZM3.69336 17.0202V14.4948L4.6528 13.7654C4.83619 13.6259 5.038 13.5137 5.255 13.433L5.25608 13.4326C5.54592 13.3243 5.90937 13.2889 6.65126 13.2292L6.65227 13.2291L6.74886 13.2212L6.8301 13.2151L6.8301 13.2151L6.83432 13.2148C7.24524 13.1815 7.44227 13.1728 7.59013 13.2067C7.78366 13.2524 7.96189 13.3479 8.10709 13.4838C8.25264 13.62 8.35993 13.792 8.41825 13.9827L8.41824 13.9827L8.4195 13.9867C8.46653 14.1374 8.47274 14.3395 8.47274 14.7577V18.5126C8.47274 18.7823 8.47245 18.9813 8.46324 19.137L8.46312 19.1391C8.45427 19.2962 8.43558 19.4079 8.40191 19.5013L8.40147 19.5026C8.33531 19.6873 8.22259 19.8518 8.07423 19.9802C7.92842 20.1064 7.75303 20.1935 7.5645 20.2334C7.44938 20.2525 7.3321 20.2551 7.2162 20.2412L7.20854 20.2403L7.20087 20.2395C7.0473 20.2242 6.85448 20.1936 6.5921 20.1518L6.59008 20.1515L6.58634 20.1509L6.47423 20.1337C6.4734 20.1336 6.47257 20.1334 6.47174 20.1333C5.71801 20.0122 5.35137 19.947 5.06118 19.8068C4.75618 19.6591 4.48562 19.449 4.26705 19.1901C4.04847 18.9312 3.88676 18.6292 3.79239 18.3037L3.79212 18.3028C3.71862 18.0505 3.69696 17.7402 3.69425 17.194L3.69425 17.1938L3.69336 17.0222V17.0202Z" stroke="#AEAEAE" stroke-width="1.5"/>
</svg>
