<svg width="24" height="24" viewBox="0 0 24 24" fill="none" xmlns="http://www.w3.org/2000/svg">
<path d="M2.58008 8.66998C3.20008 6.90998 4.30009 5.37998 5.72009 4.22998" stroke="#AEAEAE" stroke-width="1.5" stroke-linecap="round" stroke-linejoin="round"/>
<path d="M2 12C2 13.17 2.20999 14.29 2.57999 15.33" stroke="#AEAEAE" stroke-width="1.5" stroke-linecap="round" stroke-linejoin="round"/>
<path d="M9.08984 21.5703C10.0098 21.8503 10.9898 22.0002 11.9998 22.0002C17.5198 22.0002 21.9998 17.5202 21.9998 12.0002C21.9998 11.4002 21.9398 10.8102 21.8398 10.2402" stroke="#AEAEAE" stroke-width="1.5" stroke-linecap="round" stroke-linejoin="round"/>
<path d="M5.71991 19.7502C5.24991 19.3702 4.7999 18.9502 4.3999 18.4902" stroke="#AEAEAE" stroke-width="1.5" stroke-linecap="round" stroke-linejoin="round"/>
<path d="M20.2398 6.34003C18.4398 3.72003 15.4198 2 11.9998 2C10.9898 2 10.0098 2.14999 9.08984 2.42999" stroke="#AEAEAE" stroke-width="1.5" stroke-linecap="round" stroke-linejoin="round"/>
<path d="M6.94336 10.2717V13.6795" stroke="#AEAEAE" stroke-width="1.19152" stroke-linecap="round" stroke-linejoin="round"/>
<path d="M9.32617 9.13599V14.8076" stroke="#AEAEAE" stroke-width="1.19152" stroke-linecap="round" stroke-linejoin="round"/>
<path d="M11.7095 8V15.9435" stroke="#AEAEAE" stroke-width="1.19152" stroke-linecap="round" stroke-linejoin="round"/>
<path d="M14.0923 9.13599V14.8076" stroke="#AEAEAE" stroke-width="1.19152" stroke-linecap="round" stroke-linejoin="round"/>
<path d="M16.4756 10.2717V13.6795" stroke="#AEAEAE" stroke-width="1.19152" stroke-linecap="round" stroke-linejoin="round"/>
</svg>
