<svg width="24" height="24" viewBox="0 0 24 24" fill="none" xmlns="http://www.w3.org/2000/svg">
<path d="M8.68359 12.0001V10.3302C8.68359 8.25016 10.1536 7.40014 11.9536 8.44014L13.4036 9.28017L14.8536 10.1201C16.6536 11.1601 16.6536 12.8602 14.8536 13.9002L13.4036 14.7401L11.9536 15.5802C10.1536 16.6202 8.68359 15.7701 8.68359 13.6901V12.0001Z" stroke="#AEAEAE" stroke-width="1.5" stroke-miterlimit="10" stroke-linecap="round" stroke-linejoin="round"/>
<path d="M2.52344 8.66998C3.14344 6.90998 4.24345 5.37998 5.66345 4.22998" stroke="#AEAEAE" stroke-width="1.5" stroke-linecap="round" stroke-linejoin="round"/>
<path d="M1.94336 12C1.94336 13.17 2.15335 14.29 2.52335 15.33" stroke="#AEAEAE" stroke-width="1.5" stroke-linecap="round" stroke-linejoin="round"/>
<path d="M9.0332 21.5703C9.9532 21.8503 10.9332 22.0002 11.9432 22.0002C17.4632 22.0002 21.9432 17.5202 21.9432 12.0002C21.9432 11.4002 21.8832 10.8102 21.7832 10.2402" stroke="#AEAEAE" stroke-width="1.5" stroke-linecap="round" stroke-linejoin="round"/>
<path d="M5.66327 19.7502C5.19327 19.3702 4.74326 18.9502 4.34326 18.4902" stroke="#AEAEAE" stroke-width="1.5" stroke-linecap="round" stroke-linejoin="round"/>
<path d="M20.1832 6.34003C18.3832 3.72003 15.3632 2 11.9432 2C10.9332 2 9.9532 2.14999 9.0332 2.42999" stroke="#AEAEAE" stroke-width="1.5" stroke-linecap="round" stroke-linejoin="round"/>
</svg>
