<svg width="24" height="24" viewBox="0 0 24 24" fill="none" xmlns="http://www.w3.org/2000/svg">
<path d="M11.081 11.7981V12.5791C11.0973 13.0853 10.976 13.5864 10.73 14.0291C10.4982 14.4275 10.1566 14.7507 9.74602 14.9601C9.30602 15.1841 8.81602 15.2961 8.32302 15.2851C7.77022 15.2968 7.22436 15.1604 6.74202 14.8901C6.28767 14.6234 5.92128 14.2295 5.68802 13.7571C5.41836 13.2115 5.28554 12.6085 5.30102 12.0001C5.29502 11.5271 5.37102 11.0571 5.52902 10.6121C5.66557 10.2288 5.88124 9.87857 6.16202 9.5841C6.43102 9.3011 6.75702 9.0801 7.11902 8.9341C7.49302 8.7841 7.89402 8.7091 8.29702 8.7141C8.64002 8.7121 8.98102 8.7651 9.30702 8.8731C9.60402 8.9731 9.88302 9.1211 10.132 9.3121C10.372 9.5021 10.575 9.7341 10.73 9.9971C10.885 10.2671 10.986 10.5671 11.028 10.8751H9.65002C9.61336 10.732 9.55429 10.5957 9.47502 10.4711C9.39818 10.3542 9.29975 10.2531 9.18502 10.1731C9.06885 10.0855 8.93771 10.0198 8.79802 9.9791C8.63951 9.94445 8.47686 9.93266 8.31502 9.9441C8.00502 9.9341 7.70002 10.0171 7.43702 10.1811C7.1816 10.358 6.98319 10.6054 6.86602 10.8931C6.71602 11.2511 6.64302 11.6381 6.65502 12.0261C6.64702 12.4141 6.71502 12.7991 6.85702 13.1591C6.98002 13.4461 7.18102 13.6921 7.43702 13.8711C7.69702 14.0411 8.00402 14.1271 8.31502 14.1171C8.58502 14.1251 8.85402 14.0671 9.09702 13.9501C9.31754 13.8453 9.49896 13.6729 9.61502 13.4581C9.72302 13.2521 9.78002 13.0231 9.78202 12.7901H8.37602V11.7981H11.081ZM13.543 8.9161V15.1271C13.5425 15.1501 13.5332 15.1721 13.517 15.1884C13.5009 15.2048 13.479 15.2143 13.456 15.2151H12.279C12.2672 15.2164 12.2552 15.2149 12.2439 15.211C12.2327 15.207 12.2225 15.2005 12.214 15.1921C12.2056 15.1837 12.1991 15.1735 12.1952 15.1622C12.1912 15.151 12.1898 15.139 12.191 15.1271V8.9171C12.1889 8.89902 12.1929 8.88074 12.2026 8.86528C12.2122 8.84982 12.2268 8.83812 12.244 8.8321C12.2554 8.82904 12.2673 8.82803 12.279 8.8291H13.456C13.479 8.8296 13.501 8.8389 13.5173 8.85508C13.5337 8.87126 13.5433 8.8931 13.544 8.9161M14.652 15.1271V8.9171C14.6525 8.89392 14.662 8.87184 14.6784 8.85544C14.6948 8.83905 14.7168 8.82961 14.74 8.8291H18.886V9.9441H16.128C16.1048 9.94461 16.0828 9.95405 16.0664 9.97044C16.05 9.98683 16.0405 10.0089 16.04 10.0321V11.3761C16.0426 11.3986 16.0527 11.4195 16.0687 11.4355C16.0846 11.4514 16.1056 11.4615 16.128 11.4641H18.64V12.5791H16.128C16.1048 12.5796 16.0828 12.589 16.0664 12.6054C16.05 12.6218 16.0405 12.6439 16.04 12.6671V15.1271C16.0413 15.139 16.0399 15.151 16.0359 15.1622C16.0319 15.1735 16.0255 15.1837 16.017 15.1921C16.0086 15.2006 15.9984 15.207 15.9871 15.211C15.9759 15.215 15.9639 15.2164 15.952 15.2151H14.775C14.7609 15.2211 14.7456 15.2235 14.7304 15.2219C14.7151 15.2203 14.7006 15.2149 14.688 15.2061C14.6758 15.197 14.6662 15.185 14.6599 15.1712C14.6536 15.1574 14.6509 15.1422 14.652 15.1271Z" fill="#AEAEAE"/>
<path d="M16.4434 3.75H7.44336C4.95839 3.75 2.94336 5.73982 2.94336 8.19412V15.3059C2.94336 17.7602 4.95741 19.75 7.44336 19.75H16.4434C18.9283 19.75 20.9434 17.7602 20.9434 15.3059V8.19412C20.9434 5.73982 18.9293 3.75 16.4434 3.75Z" stroke="#AEAEAE" stroke-width="1.5" stroke-linecap="round" stroke-linejoin="round"/>
</svg>
