<svg width="24" height="24" viewBox="0 0 24 24" fill="none" xmlns="http://www.w3.org/2000/svg">
<path d="M12.8334 5.88H5.05334C3.34334 5.88 1.94336 7.27999 1.94336 8.98999V20.35C1.94336 21.8 2.98336 22.42 4.25336 21.71L8.18335 19.52C8.60335 19.29 9.28336 19.29 9.69336 19.52L13.6234 21.71C14.8934 22.42 15.9333 21.8 15.9333 20.35V8.98999C15.9433 7.27999 14.5434 5.88 12.8334 5.88Z" stroke="#AEAEAE" stroke-width="1.5" stroke-linecap="round" stroke-linejoin="round"/>
<path d="M15.9434 8.98999V20.35C15.9434 21.8 14.9034 22.41 13.6334 21.71L9.70337 19.52C9.28337 19.29 8.60335 19.29 8.18335 19.52L4.25336 21.71C2.98336 22.41 1.94336 21.8 1.94336 20.35V8.98999C1.94336 7.27999 3.34334 5.88 5.05334 5.88H12.8334C14.5434 5.88 15.9434 7.27999 15.9434 8.98999Z" stroke="#AEAEAE" stroke-width="1.5" stroke-linecap="round" stroke-linejoin="round"/>
<path d="M21.9434 5.10999V16.47C21.9434 17.92 20.9034 18.53 19.6334 17.83L15.9434 15.77V8.98999C15.9434 7.27999 14.5434 5.88 12.8334 5.88H7.94336V5.10999C7.94336 3.39999 9.34334 2 11.0533 2H18.8334C20.5434 2 21.9434 3.39999 21.9434 5.10999Z" stroke="#AEAEAE" stroke-width="1.5" stroke-linecap="round" stroke-linejoin="round"/>
</svg>
