<svg width="25" height="24" viewBox="0 0 25 24" fill="none" xmlns="http://www.w3.org/2000/svg">
<path d="M13.1034 10.87C13.0034 10.86 12.8834 10.86 12.7734 10.87C10.3934 10.79 8.50342 8.84 8.50342 6.44C8.50342 3.99 10.4834 2 12.9434 2C15.3934 2 17.3834 3.99 17.3834 6.44C17.3734 8.84 15.4834 10.79 13.1034 10.87Z" stroke="#AEAEAE" stroke-width="1.5" stroke-linecap="round" stroke-linejoin="round"/>
<path d="M8.10333 14.56C5.68333 16.18 5.68333 18.82 8.10333 20.43C10.8533 22.27 15.3633 22.27 18.1133 20.43C20.5333 18.81 20.5333 16.17 18.1133 14.56C15.3733 12.73 10.8633 12.73 8.10333 14.56Z" stroke="#AEAEAE" stroke-width="1.5" stroke-linecap="round" stroke-linejoin="round"/>
</svg>
