<svg width="25" height="26" viewBox="0 0 25 26" fill="none" xmlns="http://www.w3.org/2000/svg">
<path fill-rule="evenodd" clip-rule="evenodd" d="M5.61981 4.25654C5.40001 4.5518 4.92723 5.55717 4.69961 6.06819L20.5085 12.6997C20.714 12.1783 21.1033 11.1286 21.1571 10.7741C21.5107 8.76302 20.5757 6.97699 18.6447 5.9593L10.8153 2.67504C8.72245 1.99448 6.81374 2.57833 5.61981 4.25654ZM1.89076 12.756L4.6966 6.06711L20.5116 12.7012L17.6833 19.4436C16.5264 22.2016 14.0791 23.1691 11.3014 22.004L4.50499 19.153C1.75342 17.9988 0.726114 15.5324 1.89076 12.756Z" fill="url(#paint0_linear_964_37145)"/>
<g opacity="0.5" filter="url(#filter0_f_964_37145)">
<path d="M16.1541 7.41448L11.7693 5.64464C10.1788 5.00268 8.84439 5.64076 8.14458 7.37456L5.77438 13.2467C5.06309 15.009 5.58989 16.3719 7.18036 17.0138L11.5651 18.7837C13.1813 19.436 14.4804 18.8101 15.1917 17.0478L17.5618 11.1757C18.2617 9.44186 17.7702 8.06679 16.1541 7.41448Z" fill="#E9E9E9"/>
</g>
<g filter="url(#filter1_b_964_37145)">
<mask id="path-3-outside-1_964_37145" maskUnits="userSpaceOnUse" x="6.47754" y="6.36426" width="19" height="19" fill="black">
<rect fill="white" x="6.47754" y="6.36426" width="19" height="19"/>
<path fill-rule="evenodd" clip-rule="evenodd" d="M7.6282 10.8324C7.53972 11.1897 7.49265 12.2997 7.48042 12.859H24.6239C24.6117 12.2987 24.5646 11.1802 24.4771 10.8324C24.0253 8.84107 22.4721 7.55577 20.2978 7.36426H11.8075C9.61429 7.54624 8.08001 8.82297 7.6282 10.8324ZM7.47754 12.8591V20.1127C7.47754 23.1234 9.37892 25.0004 12.3628 25.0004H19.733C22.7451 25.0004 24.6276 23.1616 24.6276 20.1708V12.8591H7.47754ZM11.3932 17.0076C11.4121 17.4449 11.7697 17.7888 12.2027 17.7688C12.6263 17.7507 12.9652 17.3887 12.9463 16.9494C12.9369 16.5216 12.5887 16.1872 12.1651 16.1872C11.7321 16.2072 11.3932 16.5693 11.3932 17.0076ZM15.2619 17.0076C15.2807 17.4449 15.6384 17.7888 16.0714 17.7688C16.495 17.7507 16.8339 17.3887 16.815 16.9494C16.8056 16.5216 16.4573 16.1872 16.0338 16.1872C15.6008 16.2072 15.2619 16.5693 15.2619 17.0076ZM19.1306 20.4652C19.1306 20.9035 19.4788 21.2655 19.9118 21.2751C20.3542 21.2751 20.7119 20.913 20.7119 20.4652C20.7119 20.0184 20.3542 19.6563 19.9118 19.6563H19.9024C19.4694 19.6658 19.1212 20.0269 19.1306 20.4652ZM16.0714 21.2274C15.6384 21.2475 15.2807 20.9035 15.2619 20.4652C15.2619 20.0269 15.6008 19.6658 16.0338 19.6458C16.4573 19.6458 16.8056 19.9803 16.815 20.409C16.8339 20.8473 16.495 21.2093 16.0714 21.2274ZM12.1933 21.2274C11.7603 21.2475 11.4026 20.9035 11.3838 20.4652C11.3838 20.0269 11.7227 19.6658 12.1557 19.6458C12.5792 19.6458 12.9275 19.9803 12.9369 20.409C12.9557 20.8473 12.6169 21.2093 12.1933 21.2274ZM19.9118 16.1977C19.4788 16.2072 19.1399 16.5598 19.1399 16.998V17.0076C19.1494 17.4449 19.507 17.7784 19.94 17.7688C20.3636 17.7603 20.7025 17.3982 20.693 16.9599C20.6742 16.5397 20.3354 16.1977 19.9118 16.1977Z"/>
</mask>
<path fill-rule="evenodd" clip-rule="evenodd" d="M7.6282 10.8324C7.53972 11.1897 7.49265 12.2997 7.48042 12.859H24.6239C24.6117 12.2987 24.5646 11.1802 24.4771 10.8324C24.0253 8.84107 22.4721 7.55577 20.2978 7.36426H11.8075C9.61429 7.54624 8.08001 8.82297 7.6282 10.8324ZM7.47754 12.8591V20.1127C7.47754 23.1234 9.37892 25.0004 12.3628 25.0004H19.733C22.7451 25.0004 24.6276 23.1616 24.6276 20.1708V12.8591H7.47754ZM11.3932 17.0076C11.4121 17.4449 11.7697 17.7888 12.2027 17.7688C12.6263 17.7507 12.9652 17.3887 12.9463 16.9494C12.9369 16.5216 12.5887 16.1872 12.1651 16.1872C11.7321 16.2072 11.3932 16.5693 11.3932 17.0076ZM15.2619 17.0076C15.2807 17.4449 15.6384 17.7888 16.0714 17.7688C16.495 17.7507 16.8339 17.3887 16.815 16.9494C16.8056 16.5216 16.4573 16.1872 16.0338 16.1872C15.6008 16.2072 15.2619 16.5693 15.2619 17.0076ZM19.1306 20.4652C19.1306 20.9035 19.4788 21.2655 19.9118 21.2751C20.3542 21.2751 20.7119 20.913 20.7119 20.4652C20.7119 20.0184 20.3542 19.6563 19.9118 19.6563H19.9024C19.4694 19.6658 19.1212 20.0269 19.1306 20.4652ZM16.0714 21.2274C15.6384 21.2475 15.2807 20.9035 15.2619 20.4652C15.2619 20.0269 15.6008 19.6658 16.0338 19.6458C16.4573 19.6458 16.8056 19.9803 16.815 20.409C16.8339 20.8473 16.495 21.2093 16.0714 21.2274ZM12.1933 21.2274C11.7603 21.2475 11.4026 20.9035 11.3838 20.4652C11.3838 20.0269 11.7227 19.6658 12.1557 19.6458C12.5792 19.6458 12.9275 19.9803 12.9369 20.409C12.9557 20.8473 12.6169 21.2093 12.1933 21.2274ZM19.9118 16.1977C19.4788 16.2072 19.1399 16.5598 19.1399 16.998V17.0076C19.1494 17.4449 19.507 17.7784 19.94 17.7688C20.3636 17.7603 20.7025 17.3982 20.693 16.9599C20.6742 16.5397 20.3354 16.1977 19.9118 16.1977Z" fill="#909090" fill-opacity="0.6"/>
<path d="M7.48042 12.859L7.24714 12.8538C7.24576 12.9166 7.26973 12.9773 7.31363 13.0221C7.35753 13.067 7.41765 13.0923 7.48042 13.0923V12.859ZM7.6282 10.8324L7.85474 10.8885L7.85585 10.8836L7.6282 10.8324ZM24.6239 12.859V13.0923C24.6867 13.0923 24.7468 13.067 24.7907 13.0221C24.8346 12.9773 24.8586 12.9166 24.8572 12.8539L24.6239 12.859ZM24.4771 10.8324L24.2495 10.884L24.2508 10.8893L24.4771 10.8324ZM20.2978 7.36426L20.3183 7.13182C20.3115 7.13122 20.3046 7.13092 20.2978 7.13092V7.36426ZM11.8075 7.36426V7.13092C11.801 7.13092 11.7946 7.13119 11.7882 7.13172L11.8075 7.36426ZM7.47754 12.8591V12.6258C7.34867 12.6258 7.2442 12.7303 7.2442 12.8591H7.47754ZM24.6276 12.8591H24.861C24.861 12.7303 24.7565 12.6258 24.6276 12.6258V12.8591ZM12.2027 17.7688L12.1928 17.5357L12.192 17.5357L12.2027 17.7688ZM11.3932 17.0076H11.1597L11.1601 17.0176L11.3932 17.0076ZM12.9463 16.9494L12.713 16.9546L12.7132 16.9594L12.9463 16.9494ZM12.1651 16.1872V15.9536L12.1543 15.9541L12.1651 16.1872ZM16.0714 17.7688L16.0615 17.5357L16.0607 17.5357L16.0714 17.7688ZM15.2619 17.0076H15.0284L15.0288 17.0176L15.2619 17.0076ZM16.815 16.9494L16.5817 16.9546L16.5819 16.9594L16.815 16.9494ZM16.0338 16.1872V15.9536L16.023 15.9541L16.0338 16.1872ZM19.9118 21.2751L19.9067 21.5084H19.9118V21.2751ZM19.1306 20.4652H19.364L19.3639 20.4602L19.1306 20.4652ZM19.9024 19.6563V19.4229L19.8973 19.423L19.9024 19.6563ZM15.2619 20.4652H15.0284L15.0288 20.4752L15.2619 20.4652ZM16.0714 21.2274L16.0615 20.9943L16.0607 20.9944L16.0714 21.2274ZM16.0338 19.6458V19.4122L16.023 19.4127L16.0338 19.6458ZM16.815 20.409L16.5817 20.4141L16.5819 20.419L16.815 20.409ZM11.3838 20.4652H11.1503L11.1507 20.4752L11.3838 20.4652ZM12.1933 21.2274L12.1833 20.9943L12.1825 20.9944L12.1933 21.2274ZM12.1557 19.6458V19.4122L12.1449 19.4127L12.1557 19.6458ZM12.9369 20.409L12.7036 20.4141L12.7038 20.419L12.9369 20.409ZM19.9118 16.1977V15.9643L19.9067 15.9644L19.9118 16.1977ZM19.1399 17.0076H18.9065L18.9067 17.0126L19.1399 17.0076ZM19.94 17.7688L19.9353 17.5356L19.9349 17.5356L19.94 17.7688ZM20.693 16.9599L20.9264 16.9549L20.9261 16.9495L20.693 16.9599ZM7.71369 12.8641C7.71976 12.5869 7.73448 12.1727 7.7586 11.7844C7.78327 11.3873 7.81649 11.0427 7.85469 10.8885L7.4017 10.7763C7.35143 10.9793 7.31688 11.3684 7.29283 11.7555C7.26824 12.1513 7.25331 12.5718 7.24714 12.8538L7.71369 12.8641ZM24.6239 12.6256H7.48042V13.0923H24.6239V12.6256ZM24.2508 10.8893C24.2882 11.0381 24.3212 11.3816 24.3458 11.7804C24.3698 12.1698 24.3846 12.5863 24.3906 12.864L24.8572 12.8539C24.851 12.5713 24.8361 12.1485 24.8116 11.7516C24.7877 11.3641 24.7534 10.9744 24.7033 10.7754L24.2508 10.8893ZM20.2773 7.59669C22.3606 7.78018 23.8223 9.00094 24.2495 10.884L24.7046 10.7808C24.2282 8.6812 22.5837 7.33135 20.3183 7.13182L20.2773 7.59669ZM11.8075 7.59759H20.2978V7.13092H11.8075V7.59759ZM7.85585 10.8836C8.28336 8.98222 9.72615 7.77109 11.8268 7.59679L11.7882 7.13172C9.50243 7.32138 7.87666 8.66371 7.40055 10.7812L7.85585 10.8836ZM7.71087 20.1127V12.8591H7.2442V20.1127H7.71087ZM12.3628 24.7671C10.9204 24.7671 9.76257 24.3144 8.96594 23.5203C8.16943 22.7264 7.71087 21.5682 7.71087 20.1127H7.2442C7.2442 21.6679 7.73634 22.9536 8.63648 23.8508C9.53651 24.748 10.8213 25.2338 12.3628 25.2338V24.7671ZM19.733 24.7671H12.3628V25.2338H19.733V24.7671ZM24.3943 20.1708C24.3943 21.6164 23.9404 22.7593 23.1462 23.5408C22.3515 24.3228 21.1913 24.7671 19.733 24.7671V25.2338C21.2867 25.2338 22.5739 24.7586 23.4735 23.8735C24.3735 22.9878 24.861 21.716 24.861 20.1708H24.3943ZM24.3943 12.8591V20.1708H24.861V12.8591H24.3943ZM7.47754 13.0925H24.6276V12.6258H7.47754V13.0925ZM12.192 17.5357C11.8956 17.5494 11.64 17.3135 11.6264 16.9975L11.1601 17.0176C11.1842 17.5763 11.6439 18.0282 12.2135 18.0019L12.192 17.5357ZM12.7132 16.9594C12.7265 17.2703 12.4872 17.5231 12.1928 17.5357L12.2127 18.002C12.7654 17.9783 13.2038 17.507 13.1795 16.9394L12.7132 16.9594ZM12.1651 16.4206C12.4634 16.4206 12.7065 16.6552 12.7131 16.9546L13.1796 16.9443C13.1674 16.388 12.7139 15.9539 12.1651 15.9539V16.4206ZM11.6266 17.0076C11.6266 16.6904 11.8709 16.4344 12.1759 16.4203L12.1543 15.9541C11.5933 15.9801 11.1599 16.4481 11.1599 17.0076H11.6266ZM16.0607 17.5357C15.7642 17.5494 15.5086 17.3135 15.495 16.9975L15.0288 17.0176C15.0529 17.5763 15.5126 18.0282 16.0822 18.0019L16.0607 17.5357ZM16.5819 16.9594C16.5952 17.2703 16.3559 17.5231 16.0615 17.5357L16.0814 18.002C16.6341 17.9783 17.0725 17.507 17.0482 16.9394L16.5819 16.9594ZM16.0338 16.4206C16.3321 16.4206 16.5752 16.6552 16.5818 16.9546L17.0483 16.9443C17.0361 16.388 16.5826 15.9539 16.0338 15.9539V16.4206ZM15.4953 17.0076C15.4953 16.6904 15.7396 16.4344 16.0445 16.4203L16.023 15.9541C15.462 15.9801 15.0286 16.4481 15.0286 17.0076H15.4953ZM19.917 21.0418C19.614 21.0351 19.3639 20.7799 19.3639 20.4652H18.8972C18.8972 21.0271 19.3437 21.496 19.9067 21.5083L19.917 21.0418ZM20.4786 20.4652C20.4786 20.7868 20.2227 21.0417 19.9118 21.0417V21.5084C20.4858 21.5084 20.9453 21.0392 20.9453 20.4652H20.4786ZM19.9118 19.8896C20.2229 19.8896 20.4786 20.1447 20.4786 20.4652H20.9453C20.9453 19.892 20.4856 19.423 19.9118 19.423V19.8896ZM19.9024 19.8896H19.9118V19.423H19.9024V19.8896ZM19.3639 20.4602C19.3572 20.1507 19.6034 19.8963 19.9076 19.8896L19.8973 19.423C19.3355 19.4354 18.8851 19.9032 18.8973 20.4702L19.3639 20.4602ZM15.0288 20.4752C15.0528 21.0347 15.5124 21.4869 16.0822 21.4605L16.0607 20.9944C15.7644 21.0081 15.5087 20.7723 15.495 20.4552L15.0288 20.4752ZM16.023 19.4127C15.4623 19.4387 15.0286 19.9054 15.0286 20.4652H15.4953C15.4953 20.1484 15.7393 19.893 16.0445 19.8789L16.023 19.4127ZM17.0483 20.4039C17.0361 19.8468 16.5828 19.4125 16.0338 19.4125V19.8792C16.3319 19.8792 16.5752 20.1137 16.5818 20.4141L17.0483 20.4039ZM16.0814 21.4606C16.6339 21.437 17.0725 20.9658 17.0482 20.399L16.5819 20.419C16.5952 20.7287 16.3561 20.9817 16.0615 20.9943L16.0814 21.4606ZM11.1507 20.4752C11.1747 21.0347 11.6343 21.4869 12.2041 21.4605L12.1825 20.9944C11.8863 21.0081 11.6306 20.7723 11.6169 20.4552L11.1507 20.4752ZM12.1449 19.4127C11.5842 19.4387 11.1505 19.9054 11.1505 20.4652H11.6171C11.6171 20.1484 11.8611 19.893 12.1664 19.8789L12.1449 19.4127ZM13.1702 20.4039C13.158 19.8468 12.7046 19.4125 12.1557 19.4125V19.8792C12.4538 19.8792 12.697 20.1137 12.7036 20.4141L13.1702 20.4039ZM12.2033 21.4606C12.7558 21.437 13.1944 20.9658 13.17 20.399L12.7038 20.419C12.7171 20.7287 12.4779 20.9817 12.1833 20.9943L12.2033 21.4606ZM19.3733 16.998C19.3733 16.6833 19.6141 16.4376 19.9169 16.431L19.9067 15.9644C19.3435 15.9768 18.9066 16.4362 18.9066 16.998H19.3733ZM19.3733 17.0076V16.998H18.9066V17.0076H19.3733ZM19.9349 17.5356C19.628 17.5423 19.3798 17.3083 19.3732 17.0025L18.9067 17.0126C18.9189 17.5815 19.386 18.0144 19.9452 18.0021L19.9349 17.5356ZM20.4598 16.9649C20.4665 17.2805 20.2238 17.5297 19.9353 17.5356L19.9447 18.0021C20.5034 17.9908 20.9384 17.5159 20.9263 16.9549L20.4598 16.9649ZM19.9118 16.431C20.204 16.431 20.4464 16.6683 20.4599 16.9704L20.9261 16.9495C20.902 16.4112 20.4667 15.9644 19.9118 15.9644V16.431Z" fill="url(#paint1_linear_964_37145)" mask="url(#path-3-outside-1_964_37145)"/>
</g>
<g filter="url(#filter2_bd_964_37145)">
<mask id="path-5-inside-2_964_37145" fill="white">
<path fill-rule="evenodd" clip-rule="evenodd" d="M13.2562 9.58396C13.2562 10.0041 12.9456 10.3176 12.5314 10.3176C12.1173 10.3176 11.8066 10.0041 11.8066 9.58396V6.67893C11.8066 6.25875 12.1173 5.94434 12.5314 5.94434C12.9456 5.94434 13.2562 6.25875 13.2562 6.67893V9.58396ZM20.2973 9.58396C20.2973 10.0041 19.9772 10.3176 19.5725 10.3176C19.1583 10.3176 18.8477 10.0041 18.8477 9.58396V6.67893C18.8477 6.25875 19.1583 5.94434 19.5725 5.94434C19.9772 5.94434 20.2973 6.25875 20.2973 6.67893V9.58396Z"/>
</mask>
<path fill-rule="evenodd" clip-rule="evenodd" d="M13.2562 9.58396C13.2562 10.0041 12.9456 10.3176 12.5314 10.3176C12.1173 10.3176 11.8066 10.0041 11.8066 9.58396V6.67893C11.8066 6.25875 12.1173 5.94434 12.5314 5.94434C12.9456 5.94434 13.2562 6.25875 13.2562 6.67893V9.58396ZM20.2973 9.58396C20.2973 10.0041 19.9772 10.3176 19.5725 10.3176C19.1583 10.3176 18.8477 10.0041 18.8477 9.58396V6.67893C18.8477 6.25875 19.1583 5.94434 19.5725 5.94434C19.9772 5.94434 20.2973 6.25875 20.2973 6.67893V9.58396Z" fill="url(#paint2_linear_964_37145)"/>
<path d="M12.5314 10.4109C12.9981 10.4109 13.3495 10.0547 13.3495 9.58396H13.1629C13.1629 9.95358 12.8931 10.2243 12.5314 10.2243V10.4109ZM11.7133 9.58396C11.7133 10.0547 12.0647 10.4109 12.5314 10.4109V10.2243C12.1698 10.2243 11.9 9.95358 11.9 9.58396H11.7133ZM11.7133 6.67893V9.58396H11.9V6.67893H11.7133ZM12.5314 5.851C12.0646 5.851 11.7133 6.20836 11.7133 6.67893H11.9C11.9 6.30915 12.17 6.03767 12.5314 6.03767V5.851ZM13.3495 6.67893C13.3495 6.20836 12.9983 5.851 12.5314 5.851V6.03767C12.8929 6.03767 13.1629 6.30915 13.1629 6.67893H13.3495ZM13.3495 9.58396V6.67893H13.1629V9.58396H13.3495ZM19.5725 10.4109C20.029 10.4109 20.3906 10.0555 20.3906 9.58396H20.2039C20.2039 9.95279 19.9255 10.2243 19.5725 10.2243V10.4109ZM18.7544 9.58396C18.7544 10.0547 19.1058 10.4109 19.5725 10.4109V10.2243C19.2108 10.2243 18.941 9.95358 18.941 9.58396H18.7544ZM18.7544 6.67893V9.58396H18.941V6.67893H18.7544ZM19.5725 5.851C19.1056 5.851 18.7544 6.20836 18.7544 6.67893H18.941C18.941 6.30915 19.211 6.03767 19.5725 6.03767V5.851ZM20.3906 6.67893C20.3906 6.20756 20.0291 5.851 19.5725 5.851V6.03767C19.9253 6.03767 20.2039 6.30995 20.2039 6.67893H20.3906ZM20.3906 9.58396V6.67893H20.2039V9.58396H20.3906Z" fill="url(#paint3_linear_964_37145)" mask="url(#path-5-inside-2_964_37145)"/>
</g>
<g filter="url(#filter3_b_964_37145)">
<mask id="path-7-inside-3_964_37145" fill="white">
<path fill-rule="evenodd" clip-rule="evenodd" d="M11.4012 17.0157C11.42 17.453 11.7777 17.7969 12.2107 17.7769C12.6342 17.7588 12.9731 17.3968 12.9543 16.9575C12.9449 16.5297 12.5966 16.1953 12.173 16.1953C11.74 16.2153 11.4012 16.5774 11.4012 17.0157ZM15.2696 17.0157C15.2885 17.453 15.6462 17.7969 16.0791 17.7769C16.5027 17.7588 16.8416 17.3968 16.8228 16.9575C16.8133 16.5297 16.4651 16.1953 16.0415 16.1953C15.6085 16.2153 15.2696 16.5774 15.2696 17.0157ZM19.1384 20.4733C19.1384 20.9115 19.4866 21.2736 19.9196 21.2831C20.362 21.2831 20.7197 20.9211 20.7197 20.4733C20.7197 20.0264 20.362 19.6644 19.9196 19.6644H19.9102C19.4772 19.6739 19.129 20.035 19.1384 20.4733ZM16.0791 21.2356C15.6462 21.2556 15.2885 20.9116 15.2696 20.4733C15.2696 20.0351 15.6085 19.674 16.0415 19.6539C16.4651 19.6539 16.8133 19.9884 16.8228 20.4171C16.8416 20.8554 16.5027 21.2175 16.0791 21.2356ZM12.2011 21.2356C11.7681 21.2556 11.4104 20.9116 11.3916 20.4733C11.3916 20.0351 11.7305 19.674 12.1634 19.6539C12.587 19.6539 12.9353 19.9884 12.9447 20.4171C12.9635 20.8554 12.6247 21.2175 12.2011 21.2356ZM19.9196 16.2058C19.4866 16.2153 19.1477 16.5679 19.1477 17.0062V17.0157C19.1571 17.453 19.5148 17.7865 19.9478 17.777C20.3714 17.7684 20.7103 17.4063 20.7008 16.968C20.682 16.5479 20.3432 16.2058 19.9196 16.2058Z"/>
</mask>
<path fill-rule="evenodd" clip-rule="evenodd" d="M11.4012 17.0157C11.42 17.453 11.7777 17.7969 12.2107 17.7769C12.6342 17.7588 12.9731 17.3968 12.9543 16.9575C12.9449 16.5297 12.5966 16.1953 12.173 16.1953C11.74 16.2153 11.4012 16.5774 11.4012 17.0157ZM15.2696 17.0157C15.2885 17.453 15.6462 17.7969 16.0791 17.7769C16.5027 17.7588 16.8416 17.3968 16.8228 16.9575C16.8133 16.5297 16.4651 16.1953 16.0415 16.1953C15.6085 16.2153 15.2696 16.5774 15.2696 17.0157ZM19.1384 20.4733C19.1384 20.9115 19.4866 21.2736 19.9196 21.2831C20.362 21.2831 20.7197 20.9211 20.7197 20.4733C20.7197 20.0264 20.362 19.6644 19.9196 19.6644H19.9102C19.4772 19.6739 19.129 20.035 19.1384 20.4733ZM16.0791 21.2356C15.6462 21.2556 15.2885 20.9116 15.2696 20.4733C15.2696 20.0351 15.6085 19.674 16.0415 19.6539C16.4651 19.6539 16.8133 19.9884 16.8228 20.4171C16.8416 20.8554 16.5027 21.2175 16.0791 21.2356ZM12.2011 21.2356C11.7681 21.2556 11.4104 20.9116 11.3916 20.4733C11.3916 20.0351 11.7305 19.674 12.1634 19.6539C12.587 19.6539 12.9353 19.9884 12.9447 20.4171C12.9635 20.8554 12.6247 21.2175 12.2011 21.2356ZM19.9196 16.2058C19.4866 16.2153 19.1477 16.5679 19.1477 17.0062V17.0157C19.1571 17.453 19.5148 17.7865 19.9478 17.777C20.3714 17.7684 20.7103 17.4063 20.7008 16.968C20.682 16.5479 20.3432 16.2058 19.9196 16.2058Z" fill="white"/>
<path d="M12.2107 17.7769L12.2067 17.6837L12.2064 17.6837L12.2107 17.7769ZM11.4012 17.0157H11.3078L11.3079 17.0197L11.4012 17.0157ZM12.9543 16.9575L12.8609 16.9596L12.861 16.9615L12.9543 16.9575ZM12.173 16.1953V16.1019L12.1687 16.1021L12.173 16.1953ZM16.0791 17.7769L16.0752 17.6837L16.0748 17.6837L16.0791 17.7769ZM15.2696 17.0157H15.1762L15.1764 17.0197L15.2696 17.0157ZM16.8228 16.9575L16.7294 16.9596L16.7295 16.9615L16.8228 16.9575ZM16.0415 16.1953V16.1019L16.0372 16.1021L16.0415 16.1953ZM19.9196 21.2831L19.9176 21.3765H19.9196V21.2831ZM19.1384 20.4733H19.2317L19.2317 20.4713L19.1384 20.4733ZM19.9102 19.6644V19.571L19.9082 19.571L19.9102 19.6644ZM15.2696 20.4733H15.1762L15.1764 20.4773L15.2696 20.4733ZM16.0791 21.2356L16.0752 21.1423L16.0748 21.1423L16.0791 21.2356ZM16.0415 19.6539V19.5605L16.0372 19.5607L16.0415 19.6539ZM16.8228 20.4171L16.7294 20.4192L16.7295 20.4211L16.8228 20.4171ZM11.3916 20.4733H11.2982L11.2984 20.4773L11.3916 20.4733ZM12.2011 21.2356L12.1971 21.1423L12.1968 21.1423L12.2011 21.2356ZM12.1634 19.6539V19.5605L12.1591 19.5607L12.1634 19.6539ZM12.9447 20.4171L12.8514 20.4192L12.8515 20.4211L12.9447 20.4171ZM19.9196 16.2058V16.1125L19.9175 16.1125L19.9196 16.2058ZM19.1477 17.0157H19.0544L19.0544 17.0177L19.1477 17.0157ZM19.9478 17.777L19.9459 17.6836L19.9458 17.6836L19.9478 17.777ZM20.7008 16.968L20.7942 16.966L20.7941 16.9639L20.7008 16.968ZM12.2064 17.6837C11.828 17.7012 11.5112 17.4004 11.4944 17.0116L11.3079 17.0197C11.3288 17.5055 11.7274 17.8927 12.215 17.8702L12.2064 17.6837ZM12.861 16.9615C12.8777 17.3494 12.5786 17.6678 12.2067 17.6837L12.2147 17.8702C12.6899 17.8499 13.0686 17.4441 13.0475 16.9535L12.861 16.9615ZM12.173 16.2886C12.5465 16.2886 12.8527 16.5832 12.861 16.9596L13.0476 16.9555C13.037 16.4763 12.6467 16.102 12.173 16.102V16.2886ZM11.4945 17.0157C11.4945 16.6258 11.7956 16.3062 12.1773 16.2885L12.1687 16.1021C11.6845 16.1245 11.3078 16.5289 11.3078 17.0157H11.4945ZM16.0748 17.6837C15.6965 17.7012 15.3796 17.4004 15.3629 17.0116L15.1764 17.0197C15.1973 17.5055 15.5958 17.8927 16.0835 17.8702L16.0748 17.6837ZM16.7295 16.9615C16.7461 17.3494 16.4471 17.6678 16.0752 17.6837L16.0831 17.8702C16.5584 17.8499 16.937 17.4441 16.916 16.9535L16.7295 16.9615ZM16.0415 16.2886C16.415 16.2886 16.7212 16.5832 16.7294 16.9596L16.9161 16.9555C16.9055 16.4763 16.5152 16.102 16.0415 16.102V16.2886ZM15.363 17.0157C15.363 16.6258 15.664 16.3062 16.0458 16.2885L16.0372 16.1021C15.553 16.1245 15.1763 16.5289 15.1763 17.0157H15.363ZM19.9217 21.1898C19.5407 21.1814 19.2317 20.8621 19.2317 20.4733H19.045C19.045 20.961 19.4326 21.3658 19.9176 21.3764L19.9217 21.1898ZM20.6264 20.4733C20.6264 20.8706 20.3094 21.1898 19.9196 21.1898V21.3765C20.4146 21.3765 20.813 20.9715 20.813 20.4733H20.6264ZM19.9196 19.7577C20.3095 19.7577 20.6264 20.077 20.6264 20.4733H20.813C20.813 19.9759 20.4146 19.571 19.9196 19.571V19.7577ZM19.9102 19.7577H19.9196V19.571H19.9102V19.7577ZM19.2317 20.4713C19.2234 20.0845 19.5308 19.7661 19.9123 19.7577L19.9082 19.571C19.4236 19.5817 19.0345 19.9855 19.0451 20.4753L19.2317 20.4713ZM15.1764 20.4773C15.1973 20.9641 15.5958 21.3513 16.0835 21.3288L16.0748 21.1423C15.6966 21.1598 15.3796 20.8591 15.3629 20.4693L15.1764 20.4773ZM16.0372 19.5607C15.5531 19.5831 15.1763 19.9865 15.1763 20.4733H15.363C15.363 20.0837 15.6639 19.7648 16.0458 19.7472L16.0372 19.5607ZM16.9161 20.4151C16.9055 19.935 16.5152 19.5606 16.0415 19.5606V19.7473C16.4149 19.7473 16.7212 20.0417 16.7294 20.4192L16.9161 20.4151ZM16.0831 21.3288C16.5583 21.3085 16.937 20.9028 16.916 20.4131L16.7295 20.4211C16.7461 20.808 16.4471 21.1264 16.0752 21.1423L16.0831 21.3288ZM11.2984 20.4773C11.3193 20.9641 11.7177 21.3513 12.2054 21.3288L12.1968 21.1423C11.8185 21.1598 11.5016 20.8591 11.4848 20.4693L11.2984 20.4773ZM12.1591 19.5607C11.6751 19.5831 11.2983 19.9865 11.2983 20.4733H11.4849C11.4849 20.0837 11.7858 19.7648 12.1678 19.7472L12.1591 19.5607ZM13.038 20.4151C13.0275 19.935 12.6372 19.5606 12.1634 19.5606V19.7473C12.5369 19.7473 12.8431 20.0417 12.8514 20.4192L13.038 20.4151ZM12.2051 21.3288C12.6803 21.3085 13.059 20.9028 13.038 20.4131L12.8515 20.4211C12.8681 20.808 12.5691 21.1264 12.1971 21.1423L12.2051 21.3288ZM19.2411 17.0062C19.2411 16.6173 19.5407 16.3075 19.9216 16.2991L19.9175 16.1125C19.4325 16.1232 19.0544 16.5185 19.0544 17.0062H19.2411ZM19.2411 17.0157V17.0062H19.0544V17.0157H19.2411ZM19.9458 17.6836C19.5632 17.6921 19.2493 17.3984 19.241 17.0137L19.0544 17.0177C19.065 17.5077 19.4664 17.8809 19.9499 17.8703L19.9458 17.6836ZM20.6075 16.97C20.6159 17.3592 20.3155 17.6762 19.9459 17.6836L19.9497 17.8703C20.4273 17.8606 20.8046 17.4534 20.7942 16.966L20.6075 16.97ZM19.9196 16.2991C20.2906 16.2991 20.5909 16.5993 20.6076 16.9722L20.7941 16.9639C20.7731 16.4965 20.3957 16.1125 19.9196 16.1125V16.2991Z" fill="url(#paint4_linear_964_37145)" mask="url(#path-7-inside-3_964_37145)"/>
</g>
<g opacity="0.5" filter="url(#filter4_b_964_37145)">
<path d="M8.35188 12.9308C8.35188 13.3356 8.66535 13.6556 9.08552 13.6556L22.6674 13.6556C23.0876 13.6556 23.402 13.3356 23.402 12.9308C23.402 12.5167 23.0876 12.2061 22.6674 12.2061L9.08552 12.2061C8.66535 12.2061 8.35188 12.5167 8.35188 12.9308Z" fill="url(#paint5_linear_964_37145)" fill-opacity="0.5"/>
</g>
<defs>
<filter id="filter0_f_964_37145" x="1.03027" y="0.967037" width="21.275" height="22.5024" filterUnits="userSpaceOnUse" color-interpolation-filters="sRGB">
<feFlood flood-opacity="0" result="BackgroundImageFix"/>
<feBlend mode="normal" in="SourceGraphic" in2="BackgroundImageFix" result="shape"/>
<feGaussianBlur stdDeviation="2.21668" result="effect1_foregroundBlur_964_37145"/>
</filter>
<filter id="filter1_b_964_37145" x="1.64424" y="1.53083" width="28.8167" height="29.3026" filterUnits="userSpaceOnUse" color-interpolation-filters="sRGB">
<feFlood flood-opacity="0" result="BackgroundImageFix"/>
<feGaussianBlur in="BackgroundImageFix" stdDeviation="2.80001"/>
<feComposite in2="SourceAlpha" operator="in" result="effect1_backgroundBlur_964_37145"/>
<feBlend mode="normal" in="SourceGraphic" in2="effect1_backgroundBlur_964_37145" result="shape"/>
</filter>
<filter id="filter2_bd_964_37145" x="8.30662" y="2.44432" width="15.4906" height="11.3731" filterUnits="userSpaceOnUse" color-interpolation-filters="sRGB">
<feFlood flood-opacity="0" result="BackgroundImageFix"/>
<feGaussianBlur in="BackgroundImageFix" stdDeviation="1.75001"/>
<feComposite in2="SourceAlpha" operator="in" result="effect1_backgroundBlur_964_37145"/>
<feColorMatrix in="SourceAlpha" type="matrix" values="0 0 0 0 0 0 0 0 0 0 0 0 0 0 0 0 0 0 127 0" result="hardAlpha"/>
<feOffset dx="1.16667" dy="1.16667"/>
<feGaussianBlur stdDeviation="1.16667"/>
<feColorMatrix type="matrix" values="0 0 0 0 1 0 0 0 0 0.537255 0 0 0 0 0.160784 0 0 0 0.2 0"/>
<feBlend mode="normal" in2="effect1_backgroundBlur_964_37145" result="effect2_dropShadow_964_37145"/>
<feBlend mode="normal" in="SourceGraphic" in2="effect2_dropShadow_964_37145" result="shape"/>
</filter>
<filter id="filter3_b_964_37145" x="7.89159" y="12.6953" width="16.3282" height="12.0879" filterUnits="userSpaceOnUse" color-interpolation-filters="sRGB">
<feFlood flood-opacity="0" result="BackgroundImageFix"/>
<feGaussianBlur in="BackgroundImageFix" stdDeviation="1.75001"/>
<feComposite in2="SourceAlpha" operator="in" result="effect1_backgroundBlur_964_37145"/>
<feBlend mode="normal" in="SourceGraphic" in2="effect1_backgroundBlur_964_37145" result="shape"/>
</filter>
<filter id="filter4_b_964_37145" x="4.85191" y="8.70604" width="22.0501" height="8.44925" filterUnits="userSpaceOnUse" color-interpolation-filters="sRGB">
<feFlood flood-opacity="0" result="BackgroundImageFix"/>
<feGaussianBlur in="BackgroundImageFix" stdDeviation="1.75001"/>
<feComposite in2="SourceAlpha" operator="in" result="effect1_backgroundBlur_964_37145"/>
<feBlend mode="normal" in="SourceGraphic" in2="effect1_backgroundBlur_964_37145" result="shape"/>
</filter>
<linearGradient id="paint0_linear_964_37145" x1="14.7296" y1="4.31703" x2="7.90756" y2="20.5803" gradientUnits="userSpaceOnUse">
<stop stop-color="#A6A6A6"/>
<stop offset="1" stop-color="#A1A1A1"/>
</linearGradient>
<linearGradient id="paint1_linear_964_37145" x1="10.2076" y1="9.41889" x2="21.5198" y2="23.0432" gradientUnits="userSpaceOnUse">
<stop stop-color="white" stop-opacity="0.25"/>
<stop offset="1" stop-color="white" stop-opacity="0"/>
</linearGradient>
<linearGradient id="paint2_linear_964_37145" x1="19.7853" y1="9.63895" x2="20.0403" y2="6.35419" gradientUnits="userSpaceOnUse">
<stop stop-color="white"/>
<stop offset="1" stop-color="white" stop-opacity="0.2"/>
</linearGradient>
<linearGradient id="paint3_linear_964_37145" x1="19.552" y1="6.6056" x2="23.0043" y2="7.90047" gradientUnits="userSpaceOnUse">
<stop stop-color="white" stop-opacity="0.25"/>
<stop offset="1" stop-color="white" stop-opacity="0"/>
</linearGradient>
<linearGradient id="paint4_linear_964_37145" x1="12.8765" y1="16.788" x2="15.3257" y2="22.3495" gradientUnits="userSpaceOnUse">
<stop stop-color="#2C2C2C" stop-opacity="0.25"/>
<stop offset="1" stop-color="#2C2C2C" stop-opacity="0"/>
</linearGradient>
<linearGradient id="paint5_linear_964_37145" x1="12.414" y1="12.9104" x2="11.8743" y2="11.2203" gradientUnits="userSpaceOnUse">
<stop stop-color="white"/>
<stop offset="1" stop-color="white" stop-opacity="0.2"/>
</linearGradient>
</defs>
</svg>
