<svg width="24" height="24" viewBox="0 0 24 24" fill="none" xmlns="http://www.w3.org/2000/svg">
<path d="M12.3846 6.26923C11.4818 6.26923 10.75 5.53739 10.75 4.63462C10.75 3.73184 11.4818 3 12.3846 3C13.2874 3 14.0192 3.73184 14.0192 4.63462C14.0192 5.53739 13.2874 6.26923 12.3846 6.26923ZM12.3846 13.1346C11.4818 13.1346 10.75 12.4028 10.75 11.5C10.75 10.5972 11.4818 9.86538 12.3846 9.86538C13.2874 9.86538 14.0192 10.5972 14.0192 11.5C14.0192 12.4028 13.2874 13.1346 12.3846 13.1346ZM10.75 18.3654C10.75 19.2682 11.4818 20 12.3846 20C13.2874 20 14.0192 19.2682 14.0192 18.3654C14.0192 17.4626 13.2874 16.7308 12.3846 16.7308C11.4818 16.7308 10.75 17.4626 10.75 18.3654Z" fill="#AEAEAE"/>
</svg>
