<svg width="24" height="24" viewBox="0 0 24 24" fill="none" xmlns="http://www.w3.org/2000/svg">
<path d="M9.75845 10.87C9.65845 10.86 9.53845 10.86 9.42845 10.87C7.04845 10.79 5.15845 8.84 5.15845 6.44C5.15845 3.99 7.13845 2 9.59845 2C12.0484 2 14.0384 3.99 14.0384 6.44C14.0284 8.84 12.1384 10.79 9.75845 10.87Z" stroke="#AEAEAE" stroke-width="1.5" stroke-linecap="round" stroke-linejoin="round"/>
<path d="M4.75836 14.56C2.33836 16.18 2.33836 18.82 4.75836 20.43C7.50836 22.27 12.0184 22.27 14.7684 20.43C17.1884 18.81 17.1884 16.17 14.7684 14.56C12.0284 12.73 7.51836 12.73 4.75836 14.56Z" stroke="#AEAEAE" stroke-width="1.5" stroke-linecap="round" stroke-linejoin="round"/>
<path d="M16.3534 4C18.2934 4 19.8534 5.57 19.8534 7.5C19.8534 9.39 18.3534 10.93 16.4834 11C16.4034 10.99 16.3134 10.99 16.2234 11" stroke="#AEAEAE" stroke-width="1.5" stroke-linecap="round" stroke-linejoin="round"/>
<path d="M18.2834 20C19.0034 19.85 19.6834 19.56 20.2434 19.13C21.8034 17.96 21.8034 16.03 20.2434 14.86C19.6934 14.44 19.0234 14.16 18.3134 14" stroke="#AEAEAE" stroke-width="1.5" stroke-linecap="round" stroke-linejoin="round"/>
</svg>
