<svg width="24" height="24" viewBox="0 0 24 24" fill="none" xmlns="http://www.w3.org/2000/svg">
<path d="M14.7363 18.05C14.6464 17.0552 14.114 16.1458 13.2994 15.5947C13.5064 15.0845 13.5899 14.5279 13.537 13.9712C13.4558 13.117 13.0592 12.3237 12.4245 11.7461C11.7899 11.1686 10.9628 10.8482 10.1047 10.8477C9.5468 10.8473 9.00182 10.9821 8.51415 11.235C8.11351 10.7123 7.58854 10.2915 6.9814 10.0143C6.40344 9.75048 5.77592 9.6282 5.14982 9.65136V5.60003C5.14982 4.84416 5.45008 4.11926 5.98456 3.58478C6.51904 3.0503 7.24395 2.75003 7.99982 2.75003H17.5998C18.3557 2.75003 19.0806 3.0503 19.6151 3.58478C20.1496 4.11925 20.4498 4.84416 20.4498 5.60003V15.2C20.4498 15.9559 20.1496 16.6808 19.6151 17.2153C19.0806 17.7498 18.3557 18.05 17.5998 18.05H14.7363ZM5.81644 14.9473C5.65265 15.0151 5.4771 15.05 5.29982 15.05C4.94177 15.05 4.5984 14.9078 4.34522 14.6546C4.09205 14.4015 3.94982 14.0581 3.94982 13.7C3.94982 13.342 4.09205 12.9986 4.34522 12.7454C4.5984 12.4923 4.94177 12.35 5.29982 12.35C5.4771 12.35 5.65265 12.3849 5.81644 12.4528C5.98023 12.5206 6.12905 12.6201 6.25441 12.7454C6.37977 12.8708 6.47921 13.0196 6.54706 13.1834C6.6149 13.3472 6.64982 13.5227 6.64982 13.7C6.64982 13.8773 6.6149 14.0529 6.54706 14.2167C6.47921 14.3804 6.37977 14.5293 6.25441 14.6546C6.12905 14.78 5.98023 14.8794 5.81644 14.9473ZM8.44982 18.5756C8.44982 19.0254 8.27724 19.4668 7.87787 19.8069C7.47156 20.153 6.76217 20.45 5.59982 20.45C4.43678 20.45 3.72745 20.1538 3.32142 19.8084C2.92273 19.4693 2.74982 19.0282 2.74982 18.5756C2.74982 18.1051 3.11981 17.75 3.54302 17.75H7.65662C8.07982 17.75 8.44982 18.1051 8.44982 18.5756ZM10.6313 14.8304C10.4907 14.971 10.2999 15.05 10.101 15.05C9.9021 15.05 9.71134 14.971 9.57069 14.8304C9.43003 14.6897 9.35102 14.4989 9.35102 14.3C9.35102 14.1011 9.43003 13.9104 9.57069 13.7697C9.71134 13.629 9.9021 13.55 10.101 13.55C10.2999 13.55 10.4907 13.629 10.6313 13.7697C10.772 13.9104 10.851 14.1011 10.851 14.3C10.851 14.4989 10.772 14.6897 10.6313 14.8304Z" stroke="#AEAEAE" stroke-width="1.5"/>
</svg>
