<svg width="24" height="24" viewBox="0 0 24 24" fill="none" xmlns="http://www.w3.org/2000/svg">
<mask id="path-2-outside-1_898_16876" maskUnits="userSpaceOnUse" x="2.94336" y="4" width="19" height="15" fill="black">
<rect fill="white" x="2.94336" y="4" width="19" height="15"/>
<path d="M19.5334 11.4667L15.8081 7.49309C15.4981 7.16241 14.9434 7.38179 14.9434 7.83506V8.76883C14.9434 9.01425 14.7652 9.22339 14.523 9.26245L14.0834 9.33333C10.4854 9.87651 7.85611 11.6462 6.11403 14.3631C5.8345 14.7991 6.37852 15.2799 6.83775 15.0405C8.83533 13.9991 11.1853 13.4933 13.9434 13.4933H14.4434C14.7195 13.4933 14.9434 13.7172 14.9434 13.9933V16.3627M12.9434 14.5813C9.3774 14.76 6.61969 15.8891 4.46713 18.1039C4.0882 18.4938 3.36566 18.1562 3.52793 17.6373C4.88926 13.2839 7.83664 9.36799 13.5175 8.33767C13.7606 8.29358 13.9434 8.08414 13.9434 7.83709V5.26439C13.9434 4.81112 14.4981 4.59174 14.8081 4.92242L20.6228 11.1247C20.8031 11.317 20.8031 11.6163 20.6228 11.8086L14.8081 18.0109C14.4981 18.3416 13.9434 18.1222 13.9434 17.6689V15.06C13.9434 14.7839 13.7195 14.5601 13.4434 14.5668C13.2784 14.5707 13.1121 14.576 12.9434 14.5813Z"/>
</mask>
<path d="M19.5334 11.4667L15.8081 7.49309C15.4981 7.16241 14.9434 7.38179 14.9434 7.83506V8.76883C14.9434 9.01425 14.7652 9.22339 14.523 9.26245L14.0834 9.33333C10.4854 9.87651 7.85611 11.6462 6.11403 14.3631C5.8345 14.7991 6.37852 15.2799 6.83775 15.0405C8.83533 13.9991 11.1853 13.4933 13.9434 13.4933H14.4434C14.7195 13.4933 14.9434 13.7172 14.9434 13.9933V16.3627M12.9434 14.5813C9.3774 14.76 6.61969 15.8891 4.46713 18.1039C4.0882 18.4938 3.36566 18.1562 3.52793 17.6373C4.88926 13.2839 7.83664 9.36799 13.5175 8.33767C13.7606 8.29358 13.9434 8.08414 13.9434 7.83709V5.26439C13.9434 4.81112 14.4981 4.59174 14.8081 4.92242L20.6228 11.1247C20.8031 11.317 20.8031 11.6163 20.6228 11.8086L14.8081 18.0109C14.4981 18.3416 13.9434 18.1222 13.9434 17.6689V15.06C13.9434 14.7839 13.7195 14.5601 13.4434 14.5668C13.2784 14.5707 13.1121 14.576 12.9434 14.5813Z" fill="white"/>
<path d="M12.8434 14.56V14.5813H13.0434V14.56H12.8434ZM14.0834 9.33333L14.1132 9.5311L14.1152 9.53078L14.0834 9.33333ZM12.9434 14.5813L12.9371 14.3814L12.9333 14.3816L12.9434 14.5813ZM14.8081 18.0109L14.954 18.1477L14.8081 18.0109ZM13.5175 8.33767L13.4819 8.14088L13.5175 8.33767ZM4.46713 18.1039L4.61055 18.2433L4.46713 18.1039ZM3.52793 17.6373L3.33704 17.5776L3.52793 17.6373ZM13.4434 14.5668L13.4386 14.3668L13.4434 14.5668ZM6.11403 14.3631L5.94567 14.2552L6.11403 14.3631ZM6.83775 15.0405L6.7453 14.8631L6.83775 15.0405ZM20.6228 11.1247L20.7687 10.9879L20.6228 11.1247ZM20.6228 11.8086L20.7687 11.9454L20.6228 11.8086ZM14.523 9.26245L14.4911 9.065L14.523 9.26245ZM14.8081 4.92242L14.954 4.78563L14.8081 4.92242ZM15.8081 7.49309L15.954 7.3563L15.8081 7.49309ZM19.6793 11.3299L15.954 7.3563L15.6622 7.62987L19.3875 11.6035L19.6793 11.3299ZM14.7434 7.83506V8.76883H15.1434V7.83506H14.7434ZM14.4911 9.065L14.0515 9.13588L14.1152 9.53078L14.5548 9.4599L14.4911 9.065ZM14.0535 9.13557C10.4 9.68713 7.71959 11.4886 5.94567 14.2552L6.28239 14.4711C7.99263 11.8038 10.5708 10.0659 14.1132 9.53109L14.0535 9.13557ZM6.9302 15.2178C8.89314 14.1945 11.2098 13.6933 13.9434 13.6933V13.2933C11.1607 13.2933 8.77752 13.8037 6.7453 14.8631L6.9302 15.2178ZM13.9434 13.6933H14.4434V13.2933H13.9434V13.6933ZM14.7434 13.9933V16.3627H15.1434V13.9933H14.7434ZM12.9333 14.3816C9.32651 14.5623 6.51769 15.7071 4.32371 17.9645L4.61055 18.2433C6.72168 16.0711 9.4283 14.9577 12.9534 14.7811L12.9333 14.3816ZM3.71881 17.697C5.06508 13.3917 7.96641 9.54772 13.5532 8.53446L13.4819 8.14088C7.70687 9.18827 4.71344 13.176 3.33704 17.5776L3.71881 17.697ZM14.1434 7.83709V5.26439H13.7434V7.83709H14.1434ZM14.6622 5.05921L20.4769 11.2615L20.7687 10.9879L14.954 4.78563L14.6622 5.05921ZM20.4769 11.6718L14.6622 17.8741L14.954 18.1477L20.7687 11.9454L20.4769 11.6718ZM14.1434 17.6689V15.06H13.7434V17.6689H14.1434ZM13.4386 14.3668C13.2727 14.3708 13.1056 14.3761 12.9371 14.3814L12.9496 14.7812C13.1186 14.7759 13.2841 14.7707 13.4483 14.7667L13.4386 14.3668ZM14.6622 17.8741C14.4762 18.0725 14.1434 17.9409 14.1434 17.6689H13.7434C13.7434 18.3035 14.52 18.6107 14.954 18.1477L14.6622 17.8741ZM13.5532 8.53446C13.887 8.47392 14.1434 8.18528 14.1434 7.83709H13.7434C13.7434 7.98301 13.6342 8.11324 13.4819 8.14088L13.5532 8.53446ZM4.32371 17.9645C4.20493 18.0868 4.0265 18.1015 3.88171 18.0314C3.74085 17.9632 3.6741 17.84 3.71881 17.697L3.33704 17.5776C3.21949 17.9535 3.43288 18.2586 3.70746 18.3915C3.97809 18.5224 4.3504 18.511 4.61055 18.2433L4.32371 17.9645ZM14.1434 15.06C14.1434 14.6743 13.8298 14.3574 13.4386 14.3668L13.4483 14.7667C13.6092 14.7628 13.7434 14.8934 13.7434 15.06H14.1434ZM5.94567 14.2552C5.74392 14.5698 5.84727 14.9048 6.06396 15.1027C6.27646 15.2968 6.61693 15.3811 6.9302 15.2178L6.7453 14.8631C6.59935 14.9392 6.43819 14.9028 6.33375 14.8074C6.2335 14.7158 6.20461 14.5924 6.28239 14.4711L5.94567 14.2552ZM20.4769 11.2615C20.585 11.3769 20.585 11.5565 20.4769 11.6718L20.7687 11.9454C21.0211 11.6762 21.0211 11.2572 20.7687 10.9879L20.4769 11.2615ZM14.7434 8.76883C14.7434 8.91608 14.6365 9.04156 14.4911 9.065L14.5548 9.4599C14.894 9.40521 15.1434 9.11242 15.1434 8.76883H14.7434ZM14.4434 13.6933C14.609 13.6933 14.7434 13.8276 14.7434 13.9933H15.1434C15.1434 13.6067 14.83 13.2933 14.4434 13.2933V13.6933ZM14.1434 5.26439C14.1434 4.99243 14.4762 4.8608 14.6622 5.05921L14.954 4.78563C14.52 4.32269 13.7434 4.62981 13.7434 5.26439H14.1434ZM15.954 7.3563C15.52 6.89335 14.7434 7.20048 14.7434 7.83506H15.1434C15.1434 7.5631 15.4762 7.43147 15.6622 7.62987L15.954 7.3563Z" fill="#AEAEAE" mask="url(#path-2-outside-1_898_16876)"/>
</svg>
