<svg width="16" height="22" viewBox="0 0 16 22" fill="none" xmlns="http://www.w3.org/2000/svg">
<path d="M12.8 0.9H3.2C2.59292 0.9 2.009 1.11915 1.5771 1.51179C1.14488 1.90472 0.9 2.4398 0.9 3V19C0.9 19.5602 1.14488 20.0953 1.5771 20.4882C2.009 20.8808 2.59292 21.1 3.2 21.1H12.8C13.4071 21.1 13.991 20.8808 14.4229 20.4882C14.8551 20.0953 15.1 19.5602 15.1 19V3C15.1 2.4398 14.8551 1.90472 14.4229 1.51179C13.991 1.11915 13.4071 0.9 12.8 0.9ZM13.7 19C13.7 19.2113 13.6077 19.4162 13.4398 19.5688C13.2716 19.7218 13.0416 19.8091 12.8 19.8091H3.2C2.95839 19.8091 2.72837 19.7218 2.56016 19.5688C2.39227 19.4162 2.3 19.2113 2.3 19V3C2.3 2.78866 2.39227 2.5838 2.56016 2.43117C2.72837 2.27825 2.95839 2.19091 3.2 2.19091H12.8C13.0416 2.19091 13.2716 2.27825 13.4398 2.43117C13.6077 2.5838 13.7 2.78866 13.7 3V19ZM8.91205 5.38247C9.03411 5.21639 9.1 5.02001 9.1 4.81818C9.1 4.54731 8.98155 4.28971 8.77438 4.10136C8.56751 3.91331 8.28883 3.80909 8 3.80909C7.78445 3.80909 7.57306 3.86716 7.39251 3.97683C7.2119 4.08655 7.06959 4.24344 6.98512 4.42883C6.90058 4.61437 6.87826 4.81919 6.92153 5.01691C6.96476 5.21452 7.07119 5.3946 7.22563 5.535C7.37997 5.67531 7.57551 5.76995 7.78712 5.80821C7.9987 5.84647 8.21811 5.8269 8.41792 5.75166C8.61777 5.6764 8.79008 5.54841 8.91205 5.38247Z" fill="#AEAEAE" stroke="#AEAEAE" stroke-width="0.2"/>
</svg>
