<svg width="24" height="24" viewBox="0 0 24 24" fill="none" xmlns="http://www.w3.org/2000/svg">
<path d="M19.9434 7L21.9434 7" stroke="#AEAEAE" stroke-opacity="0.5" stroke-width="1.5" stroke-linecap="round"/>
<path d="M15.9434 12L21.9434 12" stroke="#AEAEAE" stroke-opacity="0.5" stroke-width="1.5" stroke-linecap="round"/>
<path d="M13.9434 17L21.9434 17" stroke="#AEAEAE" stroke-opacity="0.5" stroke-width="1.5" stroke-linecap="round"/>
<path d="M15.5956 8.79826V8.79831L15.5983 8.79821C15.8749 8.78736 16.1205 8.75749 16.3347 8.70806C16.5504 8.65827 16.7526 8.57797 16.941 8.46718C17.127 8.35774 17.3046 8.22927 17.4738 8.08189C17.8002 7.79769 17.7942 7.30157 17.493 7.00037L12.951 2.45838C12.6455 2.1529 12.1411 2.14567 11.8533 2.47768C11.711 2.64191 11.5851 2.81977 11.4757 3.01119C11.3655 3.20412 11.2828 3.40816 11.2277 3.62316C11.1724 3.83882 11.1451 4.08054 11.1451 4.34774C11.1451 4.66539 11.057 4.97829 10.8418 5.19352L9.07398 6.96129C8.53737 7.4979 7.73383 7.64797 6.9524 7.64797C6.4077 7.64797 5.8896 7.74879 5.39868 7.95061C4.90773 8.15245 4.47133 8.44435 4.08982 8.82586C3.8632 9.05247 3.8632 9.41989 4.08982 9.6465L6.78297 12.3397L2.34371 16.7711C2.27891 16.8358 2.23017 16.9148 2.20141 17.0017C2.05013 17.4589 2.48445 17.8932 2.94165 17.742C3.02858 17.7132 3.10756 17.6644 3.17225 17.5996L7.6037 13.1604L9.99047 15.5472C10.3834 15.9401 11.0294 15.9379 11.3944 15.512C11.5908 15.2829 11.7546 15.0399 11.8859 14.783C12.017 14.5262 12.118 14.2531 12.1889 13.9641C12.2601 13.6737 12.2954 13.3519 12.2954 12.999C12.2954 12.7811 12.279 12.5633 12.2464 12.3456C12.1899 11.9689 12.2714 11.5801 12.5313 11.3201L14.7498 9.1016C14.9651 8.88637 15.278 8.79826 15.5956 8.79826ZM15.7676 6.92428C15.9049 7.06155 15.9497 7.24383 15.9162 7.38728C15.8995 7.45852 15.8639 7.51906 15.8121 7.56171C15.7609 7.60386 15.6901 7.63166 15.5968 7.63189C15.4458 7.62662 15.3091 7.60839 15.1861 7.57766C14.9157 7.51005 14.6239 7.57838 14.424 7.77873L11.0591 11.1505C10.8651 11.3448 10.8048 11.6365 10.909 11.8913C10.9564 12.0072 10.9986 12.1258 11.0355 12.2471C11.072 12.3669 11.0979 12.4865 11.1135 12.6059C11.1292 12.7258 11.1371 12.8568 11.1371 12.999C11.1371 13.2976 11.0926 13.5853 11.0037 13.8625C10.9415 14.0563 10.7909 14.1634 10.6174 14.1873C10.4421 14.2115 10.2427 14.15 10.0932 14.0005L5.9483 9.85565C5.79706 9.70441 5.73457 9.5021 5.75892 9.32503C5.78298 9.15006 5.8912 8.99941 6.08781 8.94005C6.3649 8.8564 6.65261 8.81445 6.95119 8.81434C7.09906 8.81965 7.23315 8.83021 7.35358 8.84592C7.47382 8.86161 7.59135 8.88512 7.70621 8.91644C7.82133 8.94784 7.93661 8.98713 8.05205 9.03436C8.30682 9.13858 8.59852 9.07824 8.7929 8.88426L12.1576 5.52644C12.3622 5.3222 12.4263 5.02364 12.3577 4.74919C12.327 4.62665 12.3115 4.49294 12.3115 4.34774C12.3115 4.25384 12.3393 4.18266 12.3816 4.13125C12.4243 4.07944 12.4848 4.04387 12.5561 4.02721C12.6995 3.99366 12.8818 4.03849 13.0191 4.17577L15.7676 6.92428Z" fill="#AEAEAE" stroke="#AEAEAE" stroke-width="0.137219"/>
</svg>
